<svg width="44" height="44" viewBox="0 0 44 44" fill="none" xmlns="http://www.w3.org/2000/svg">
<circle cx="22" cy="22" r="22" fill="#FAF9F9"/>
<circle cx="22" cy="22" r="21.5" fill="#EBEBEB" stroke="black"/>
<path d="M18.0417 24.8229C17.5896 24.8229 17.2077 24.6666 16.896 24.354C16.5834 24.0423 16.4271 23.6604 16.4271 23.2083C16.4271 22.7563 16.5834 22.3743 16.896 22.0626C17.2077 21.75 17.5896 21.5938 18.0417 21.5938C18.4938 21.5938 18.8757 21.75 19.1874 22.0626C19.5 22.3743 19.6563 22.7563 19.6563 23.2083C19.6563 23.6604 19.5 24.0423 19.1874 24.354C18.8757 24.6666 18.4938 24.8229 18.0417 24.8229ZM25.7917 24.8229C25.3396 24.8229 24.9577 24.6666 24.646 24.354C24.3334 24.0423 24.1771 23.6604 24.1771 23.2083C24.1771 22.7563 24.3334 22.3743 24.646 22.0626C24.9577 21.75 25.3396 21.5938 25.7917 21.5938C26.2438 21.5938 26.6257 21.75 26.9374 22.0626C27.25 22.3743 27.4063 22.7563 27.4063 23.2083C27.4063 23.6604 27.25 24.0423 26.9374 24.354C26.6257 24.6666 26.2438 24.8229 25.7917 24.8229ZM21.9167 32.25C24.8014 32.25 27.2448 31.249 29.2469 29.2469C31.249 27.2448 32.25 24.8014 32.25 21.9167C32.25 21.4 32.2177 20.8993 32.1531 20.4145C32.0885 19.9305 31.9701 19.4625 31.7979 19.0104C31.3458 19.1181 30.8938 19.199 30.4417 19.2533C29.9896 19.3066 29.516 19.3333 29.0208 19.3333C27.0618 19.3333 25.2104 18.9135 23.4667 18.074C21.7229 17.2344 20.2375 16.0611 19.0104 14.5542C18.3215 16.2333 17.3368 17.6921 16.0564 18.9303C14.775 20.1678 13.284 21.0986 11.5833 21.7229L11.5833 21.9167C11.5833 24.8014 12.5844 27.2448 14.5865 29.2469C16.5885 31.249 19.0319 32.25 21.9167 32.25ZM21.9167 34.8333C20.1299 34.8333 18.4507 34.4941 16.8792 33.8155C15.3076 33.1378 13.9406 32.2177 12.7781 31.0552C11.6156 29.8927 10.6955 28.5257 10.0178 26.9542C9.33928 25.3826 9 23.7035 9 21.9167C9 20.1299 9.33928 18.4507 10.0178 16.8792C10.6955 15.3076 11.6156 13.9406 12.7781 12.7781C13.9406 11.6156 15.3076 10.6951 16.8792 10.0165C18.4507 9.33885 20.1299 9 21.9167 9C23.7035 9 25.3826 9.33885 26.9542 10.0165C28.5257 10.6951 29.8927 11.6156 31.0552 12.7781C32.2177 13.9406 33.1378 15.3076 33.8155 16.8792C34.4941 18.4507 34.8333 20.1299 34.8333 21.9167C34.8333 23.7035 34.4941 25.3826 33.8155 26.9542C33.1378 28.5257 32.2177 29.8927 31.0552 31.0552C29.8927 32.2177 28.5257 33.1378 26.9542 33.8155C25.3826 34.4941 23.7035 34.8333 21.9167 34.8333Z" fill="black"/>
</svg>
